<mxfile host="app.diagrams.net" modified="2022-12-01T07:44:50.539Z" agent="5.0 (Windows NT 10.0; Win64; x64) AppleWebKit/537.36 (KHTML, like Gecko) Chrome/107.0.0.0 Safari/537.36 Edg/107.0.1418.62" etag="QWmZBdJSCzf7ZqOy8kdF" version="20.4.0" type="github">
  <diagram id="k3sl_BRwc1H5Ejsd1hgR" name="第 1 页">
    <mxGraphModel dx="1221" dy="681" grid="1" gridSize="10" guides="1" tooltips="1" connect="1" arrows="1" fold="1" page="1" pageScale="1" pageWidth="827" pageHeight="1169" math="0" shadow="0">
      <root>
        <mxCell id="0" />
        <mxCell id="1" parent="0" />
        <mxCell id="isSvybaSc9SBgO7T6rGv-141" value="" style="rounded=0;whiteSpace=wrap;html=1;" parent="1" vertex="1">
          <mxGeometry x="90" y="220" width="770" height="250" as="geometry" />
        </mxCell>
        <mxCell id="isSvybaSc9SBgO7T6rGv-11" value="" style="group" parent="1" vertex="1" connectable="0">
          <mxGeometry x="190" y="240" width="150" height="220" as="geometry" />
        </mxCell>
        <mxCell id="isSvybaSc9SBgO7T6rGv-3" value="" style="rounded=0;whiteSpace=wrap;html=1;fillColor=#ffe6cc;strokeColor=#d79b00;" parent="isSvybaSc9SBgO7T6rGv-11" vertex="1">
          <mxGeometry width="150" height="220" as="geometry" />
        </mxCell>
        <mxCell id="isSvybaSc9SBgO7T6rGv-2" value="智慧交通数字底座一张图" style="text;html=1;strokeColor=none;fillColor=none;align=center;verticalAlign=middle;whiteSpace=wrap;rounded=0;" parent="isSvybaSc9SBgO7T6rGv-11" vertex="1">
          <mxGeometry x="5" width="140" height="38.26086956521739" as="geometry" />
        </mxCell>
        <mxCell id="isSvybaSc9SBgO7T6rGv-4" value="道路交通数据" style="rounded=1;whiteSpace=wrap;html=1;" parent="isSvybaSc9SBgO7T6rGv-11" vertex="1">
          <mxGeometry x="22.5" y="38.26086956521739" width="105" height="28.695652173913043" as="geometry" />
        </mxCell>
        <mxCell id="isSvybaSc9SBgO7T6rGv-5" value="静态交通数据" style="rounded=1;whiteSpace=wrap;html=1;" parent="isSvybaSc9SBgO7T6rGv-11" vertex="1">
          <mxGeometry x="22.5" y="71.73913043478261" width="105" height="28.695652173913043" as="geometry" />
        </mxCell>
        <mxCell id="isSvybaSc9SBgO7T6rGv-6" value="公路运输数据" style="rounded=1;whiteSpace=wrap;html=1;" parent="isSvybaSc9SBgO7T6rGv-11" vertex="1">
          <mxGeometry x="22.5" y="104.26086956521739" width="105" height="28.695652173913043" as="geometry" />
        </mxCell>
        <mxCell id="isSvybaSc9SBgO7T6rGv-9" value="出租车数据&lt;span style=&quot;color: rgba(0, 0, 0, 0); font-family: monospace; font-size: 0px; text-align: start;&quot;&gt;%3CmxGraphModel%3E%3Croot%3E%3CmxCell%20id%3D%220%22%2F%3E%3CmxCell%20id%3D%221%22%20parent%3D%220%22%2F%3E%3CmxCell%20id%3D%222%22%20value%3D%22%E5%85%AC%E8%B7%AF%E8%BF%90%E8%BE%93%E6%95%B0%E6%8D%AE%22%20style%3D%22rounded%3D1%3BwhiteSpace%3Dwrap%3Bhtml%3D1%3B%22%20vertex%3D%221%22%20parent%3D%221%22%3E%3CmxGeometry%20x%3D%22122.5%22%20y%3D%22339%22%20width%3D%22105%22%20height%3D%2230%22%20as%3D%22geometry%22%2F%3E%3C%2FmxCell%3E%3C%2Froot%3E%3C%2FmxGraphModel%3E&lt;/span&gt;" style="rounded=1;whiteSpace=wrap;html=1;" parent="isSvybaSc9SBgO7T6rGv-11" vertex="1">
          <mxGeometry x="22.5" y="138.69565217391306" width="105" height="28.695652173913043" as="geometry" />
        </mxCell>
        <mxCell id="isSvybaSc9SBgO7T6rGv-10" value="地面公交数据" style="rounded=1;whiteSpace=wrap;html=1;" parent="isSvybaSc9SBgO7T6rGv-11" vertex="1">
          <mxGeometry x="22.5" y="176.95652173913044" width="105" height="28.695652173913043" as="geometry" />
        </mxCell>
        <mxCell id="isSvybaSc9SBgO7T6rGv-99" value="计算资源" style="rounded=0;whiteSpace=wrap;html=1;" parent="1" vertex="1">
          <mxGeometry x="110" y="660" width="120" height="60" as="geometry" />
        </mxCell>
        <mxCell id="isSvybaSc9SBgO7T6rGv-100" value="存储资源" style="rounded=0;whiteSpace=wrap;html=1;" parent="1" vertex="1">
          <mxGeometry x="300" y="660" width="120" height="60" as="geometry" />
        </mxCell>
        <mxCell id="isSvybaSc9SBgO7T6rGv-101" value="网络资源" style="rounded=0;whiteSpace=wrap;html=1;" parent="1" vertex="1">
          <mxGeometry x="510" y="660" width="120" height="60" as="geometry" />
        </mxCell>
        <mxCell id="isSvybaSc9SBgO7T6rGv-102" value="网络资源" style="rounded=0;whiteSpace=wrap;html=1;" parent="1" vertex="1">
          <mxGeometry x="707" y="660" width="120" height="60" as="geometry" />
        </mxCell>
        <mxCell id="isSvybaSc9SBgO7T6rGv-124" value="" style="rounded=0;whiteSpace=wrap;html=1;" parent="1" vertex="1">
          <mxGeometry x="90" y="483" width="770" height="160" as="geometry" />
        </mxCell>
        <mxCell id="isSvybaSc9SBgO7T6rGv-106" value="数据收集" style="rounded=0;whiteSpace=wrap;html=1;dashed=1;dashPattern=1 1;strokeColor=#d79b00;strokeWidth=2;fillColor=#ffe6cc;" parent="1" vertex="1">
          <mxGeometry x="711" y="510" width="116" height="52" as="geometry" />
        </mxCell>
        <mxCell id="isSvybaSc9SBgO7T6rGv-109" value="权限服务" style="rounded=0;whiteSpace=wrap;html=1;dashed=1;dashPattern=1 1;strokeColor=#d79b00;strokeWidth=2;fillColor=#ffe6cc;" parent="1" vertex="1">
          <mxGeometry x="570.5" y="577" width="116" height="52" as="geometry" />
        </mxCell>
        <mxCell id="isSvybaSc9SBgO7T6rGv-110" value="消息服务" style="rounded=0;whiteSpace=wrap;html=1;dashed=1;dashPattern=1 1;strokeColor=#d79b00;strokeWidth=2;fillColor=#ffe6cc;" parent="1" vertex="1">
          <mxGeometry x="711" y="577" width="116" height="52" as="geometry" />
        </mxCell>
        <mxCell id="isSvybaSc9SBgO7T6rGv-119" value="数据API" style="rounded=0;whiteSpace=wrap;html=1;dashed=1;dashPattern=1 1;strokeColor=#d79b00;strokeWidth=2;fillColor=#ffe6cc;" parent="1" vertex="1">
          <mxGeometry x="279" y="510" width="116" height="52" as="geometry" />
        </mxCell>
        <mxCell id="isSvybaSc9SBgO7T6rGv-120" value="决策引擎" style="rounded=0;whiteSpace=wrap;html=1;dashed=1;dashPattern=1 1;strokeColor=#d79b00;strokeWidth=2;fillColor=#ffe6cc;" parent="1" vertex="1">
          <mxGeometry x="424" y="510" width="116" height="52" as="geometry" />
        </mxCell>
        <mxCell id="isSvybaSc9SBgO7T6rGv-121" value="报表引擎&lt;span style=&quot;color: rgba(0, 0, 0, 0); font-family: monospace; font-size: 0px; text-align: start;&quot;&gt;%3CmxGraphModel%3E%3Croot%3E%3CmxCell%20id%3D%220%22%2F%3E%3CmxCell%20id%3D%221%22%20parent%3D%220%22%2F%3E%3CmxCell%20id%3D%222%22%20value%3D%22%E5%86%B3%E7%AD%96%E5%BC%95%E6%93%8E%22%20style%3D%22rounded%3D0%3BwhiteSpace%3Dwrap%3Bhtml%3D1%3Bdashed%3D1%3BdashPattern%3D1%201%3BstrokeColor%3D%23d79b00%3BstrokeWidth%3D2%3BfillColor%3D%23ffe6cc%3B%22%20vertex%3D%221%22%20parent%3D%221%22%3E%3CmxGeometry%20x%3D%22341%22%20y%3D%22-472.5%22%20width%3D%22116%22%20height%3D%2252%22%20as%3D%22geometry%22%2F%3E%3C%2FmxCell%3E%3C%2Froot%3E%3C%2FmxGraphModel%3E&lt;/span&gt;" style="rounded=0;whiteSpace=wrap;html=1;dashed=1;dashPattern=1 1;strokeColor=#d79b00;strokeWidth=2;fillColor=#ffe6cc;" parent="1" vertex="1">
          <mxGeometry x="569" y="510" width="116" height="52" as="geometry" />
        </mxCell>
        <mxCell id="isSvybaSc9SBgO7T6rGv-122" value="数据清理" style="rounded=0;whiteSpace=wrap;html=1;dashed=1;dashPattern=1 1;strokeColor=#d79b00;strokeWidth=2;fillColor=#ffe6cc;" parent="1" vertex="1">
          <mxGeometry x="279" y="575" width="116" height="52" as="geometry" />
        </mxCell>
        <mxCell id="isSvybaSc9SBgO7T6rGv-123" value="OLAP工具" style="rounded=0;whiteSpace=wrap;html=1;dashed=1;dashPattern=1 1;strokeColor=#d79b00;strokeWidth=2;fillColor=#ffe6cc;" parent="1" vertex="1">
          <mxGeometry x="424" y="575" width="116" height="52" as="geometry" />
        </mxCell>
        <mxCell id="isSvybaSc9SBgO7T6rGv-125" value="服务支撑" style="text;html=1;strokeColor=none;fillColor=none;align=center;verticalAlign=middle;whiteSpace=wrap;rounded=0;" parent="1" vertex="1">
          <mxGeometry x="130" y="549" width="60" height="28" as="geometry" />
        </mxCell>
        <mxCell id="isSvybaSc9SBgO7T6rGv-129" value="" style="rounded=0;whiteSpace=wrap;html=1;" parent="1" vertex="1">
          <mxGeometry x="90" y="100" width="770" height="100" as="geometry" />
        </mxCell>
        <mxCell id="isSvybaSc9SBgO7T6rGv-126" value="PC端" style="rounded=0;whiteSpace=wrap;html=1;dashed=1;dashPattern=1 1;strokeColor=#d79b00;strokeWidth=2;fillColor=#ffe6cc;" parent="1" vertex="1">
          <mxGeometry x="370" y="119" width="116" height="52" as="geometry" />
        </mxCell>
        <mxCell id="isSvybaSc9SBgO7T6rGv-127" value="移动端" style="rounded=0;whiteSpace=wrap;html=1;dashed=1;dashPattern=1 1;strokeColor=#d79b00;strokeWidth=2;fillColor=#ffe6cc;" parent="1" vertex="1">
          <mxGeometry x="650" y="119" width="116" height="52" as="geometry" />
        </mxCell>
        <mxCell id="isSvybaSc9SBgO7T6rGv-128" value="前端" style="text;html=1;strokeColor=none;fillColor=none;align=center;verticalAlign=middle;whiteSpace=wrap;rounded=0;" parent="1" vertex="1">
          <mxGeometry x="100" y="130" width="60" height="30" as="geometry" />
        </mxCell>
        <mxCell id="isSvybaSc9SBgO7T6rGv-137" value="" style="group" parent="1" vertex="1" connectable="0">
          <mxGeometry x="360" y="240" width="265" height="225" as="geometry" />
        </mxCell>
        <mxCell id="isSvybaSc9SBgO7T6rGv-14" value="" style="rounded=0;whiteSpace=wrap;html=1;fillColor=#ffe6cc;strokeColor=#d79b00;" parent="isSvybaSc9SBgO7T6rGv-137" vertex="1">
          <mxGeometry width="265" height="225.00000000000003" as="geometry" />
        </mxCell>
        <mxCell id="isSvybaSc9SBgO7T6rGv-37" value="知识库" style="rounded=1;whiteSpace=wrap;html=1;" parent="isSvybaSc9SBgO7T6rGv-137" vertex="1">
          <mxGeometry x="142.21666666666664" y="112.50000000000001" width="114.83333333333333" height="29.347826086956527" as="geometry" />
        </mxCell>
        <mxCell id="isSvybaSc9SBgO7T6rGv-38" value="运营" style="rounded=1;whiteSpace=wrap;html=1;" parent="isSvybaSc9SBgO7T6rGv-137" vertex="1">
          <mxGeometry x="17.666666666666664" y="185.86956521739134" width="114.83333333333333" height="29.347826086956527" as="geometry" />
        </mxCell>
        <mxCell id="isSvybaSc9SBgO7T6rGv-40" value="基础信息" style="rounded=1;whiteSpace=wrap;html=1;" parent="isSvybaSc9SBgO7T6rGv-137" vertex="1">
          <mxGeometry x="142.49933333333334" y="151.63043478260872" width="114.83333333333333" height="29.347826086956527" as="geometry" />
        </mxCell>
        <mxCell id="isSvybaSc9SBgO7T6rGv-41" value="辅助管理" style="rounded=1;whiteSpace=wrap;html=1;" parent="isSvybaSc9SBgO7T6rGv-137" vertex="1">
          <mxGeometry x="142.21666666666664" y="185.86956521739134" width="114.83333333333333" height="29.347826086956527" as="geometry" />
        </mxCell>
        <mxCell id="isSvybaSc9SBgO7T6rGv-16" value="资产管理" style="rounded=1;whiteSpace=wrap;html=1;" parent="isSvybaSc9SBgO7T6rGv-137" vertex="1">
          <mxGeometry x="17.666666666666664" y="39.130434782608695" width="114.83333333333333" height="29.347826086956527" as="geometry" />
        </mxCell>
        <mxCell id="isSvybaSc9SBgO7T6rGv-17" value="路长制管理" style="rounded=1;whiteSpace=wrap;html=1;" parent="isSvybaSc9SBgO7T6rGv-137" vertex="1">
          <mxGeometry x="17.666666666666664" y="77.28260869565219" width="114.83333333333333" height="29.347826086956527" as="geometry" />
        </mxCell>
        <mxCell id="isSvybaSc9SBgO7T6rGv-18" value="道路养护" style="rounded=1;whiteSpace=wrap;html=1;" parent="isSvybaSc9SBgO7T6rGv-137" vertex="1">
          <mxGeometry x="17.666666666666664" y="112.50000000000001" width="114.83333333333333" height="29.347826086956527" as="geometry" />
        </mxCell>
        <mxCell id="isSvybaSc9SBgO7T6rGv-19" value="路政" style="rounded=1;whiteSpace=wrap;html=1;" parent="isSvybaSc9SBgO7T6rGv-137" vertex="1">
          <mxGeometry x="17.666666666666664" y="151.63043478260872" width="114.83333333333333" height="29.347826086956527" as="geometry" />
        </mxCell>
        <mxCell id="isSvybaSc9SBgO7T6rGv-20" value="公路建设" style="rounded=1;whiteSpace=wrap;html=1;" parent="isSvybaSc9SBgO7T6rGv-137" vertex="1">
          <mxGeometry x="142.65833333333333" y="39.130434782608695" width="114.83333333333333" height="29.347826086956527" as="geometry" />
        </mxCell>
        <mxCell id="isSvybaSc9SBgO7T6rGv-139" value="" style="group" parent="isSvybaSc9SBgO7T6rGv-137" vertex="1" connectable="0">
          <mxGeometry x="52.997055555555555" width="204.49461111111108" height="106.63043478260872" as="geometry" />
        </mxCell>
        <mxCell id="isSvybaSc9SBgO7T6rGv-15" value="农村公路管理平台" style="text;html=1;strokeColor=none;fillColor=none;align=center;verticalAlign=middle;whiteSpace=wrap;rounded=0;" parent="isSvybaSc9SBgO7T6rGv-139" vertex="1">
          <mxGeometry width="189.6222222222222" height="39.130434782608695" as="geometry" />
        </mxCell>
        <mxCell id="isSvybaSc9SBgO7T6rGv-39" value="考核" style="rounded=1;whiteSpace=wrap;html=1;" parent="isSvybaSc9SBgO7T6rGv-139" vertex="1">
          <mxGeometry x="89.66127777777777" y="77.28260869565219" width="114.83333333333331" height="29.347826086956527" as="geometry" />
        </mxCell>
        <mxCell id="isSvybaSc9SBgO7T6rGv-138" value="" style="group" parent="1" vertex="1" connectable="0">
          <mxGeometry x="640" y="240" width="210" height="220" as="geometry" />
        </mxCell>
        <mxCell id="isSvybaSc9SBgO7T6rGv-22" value="" style="rounded=0;whiteSpace=wrap;html=1;fillColor=#ffe6cc;strokeColor=#d79b00;" parent="isSvybaSc9SBgO7T6rGv-138" vertex="1">
          <mxGeometry width="210" height="220" as="geometry" />
        </mxCell>
        <mxCell id="isSvybaSc9SBgO7T6rGv-23" value="农村公路管理移动端" style="text;html=1;strokeColor=none;fillColor=none;align=center;verticalAlign=middle;whiteSpace=wrap;rounded=0;" parent="isSvybaSc9SBgO7T6rGv-138" vertex="1">
          <mxGeometry x="50.4" width="117.60000000000001" height="38.26086956521739" as="geometry" />
        </mxCell>
        <mxCell id="isSvybaSc9SBgO7T6rGv-24" value="工作提醒" style="rounded=1;whiteSpace=wrap;html=1;" parent="isSvybaSc9SBgO7T6rGv-138" vertex="1">
          <mxGeometry x="18.9" y="38.26086956521739" width="88.2" height="28.695652173913043" as="geometry" />
        </mxCell>
        <mxCell id="isSvybaSc9SBgO7T6rGv-25" value="数据采集" style="rounded=1;whiteSpace=wrap;html=1;" parent="isSvybaSc9SBgO7T6rGv-138" vertex="1">
          <mxGeometry x="18.9" y="71.73913043478261" width="88.2" height="28.695652173913043" as="geometry" />
        </mxCell>
        <mxCell id="isSvybaSc9SBgO7T6rGv-26" value="业务办理" style="rounded=1;whiteSpace=wrap;html=1;" parent="isSvybaSc9SBgO7T6rGv-138" vertex="1">
          <mxGeometry x="18.9" y="104.26086956521739" width="88.2" height="28.695652173913043" as="geometry" />
        </mxCell>
        <mxCell id="isSvybaSc9SBgO7T6rGv-27" value="养护巡查" style="rounded=1;whiteSpace=wrap;html=1;" parent="isSvybaSc9SBgO7T6rGv-138" vertex="1">
          <mxGeometry x="18.9" y="138.69565217391306" width="88.2" height="28.695652173913043" as="geometry" />
        </mxCell>
        <mxCell id="isSvybaSc9SBgO7T6rGv-28" value="公路运营" style="rounded=1;whiteSpace=wrap;html=1;" parent="isSvybaSc9SBgO7T6rGv-138" vertex="1">
          <mxGeometry x="18.9" y="176.95652173913044" width="88.2" height="28.695652173913043" as="geometry" />
        </mxCell>
        <mxCell id="isSvybaSc9SBgO7T6rGv-59" value="考核" style="rounded=1;whiteSpace=wrap;html=1;" parent="isSvybaSc9SBgO7T6rGv-138" vertex="1">
          <mxGeometry x="117.60000000000001" y="38.26086956521739" width="88.2" height="28.695652173913043" as="geometry" />
        </mxCell>
        <mxCell id="isSvybaSc9SBgO7T6rGv-60" value="个人中心" style="rounded=1;whiteSpace=wrap;html=1;" parent="isSvybaSc9SBgO7T6rGv-138" vertex="1">
          <mxGeometry x="117.60000000000001" y="72.69565217391305" width="88.2" height="28.695652173913043" as="geometry" />
        </mxCell>
        <mxCell id="isSvybaSc9SBgO7T6rGv-61" value="路段信息" style="rounded=1;whiteSpace=wrap;html=1;" parent="isSvybaSc9SBgO7T6rGv-138" vertex="1">
          <mxGeometry x="117.60000000000001" y="106.17391304347827" width="88.2" height="28.695652173913043" as="geometry" />
        </mxCell>
        <mxCell id="isSvybaSc9SBgO7T6rGv-62" value="知识库" style="rounded=1;whiteSpace=wrap;html=1;" parent="isSvybaSc9SBgO7T6rGv-138" vertex="1">
          <mxGeometry x="117.60000000000001" y="140.6086956521739" width="88.2" height="28.695652173913043" as="geometry" />
        </mxCell>
        <mxCell id="isSvybaSc9SBgO7T6rGv-63" value="公路建设" style="rounded=1;whiteSpace=wrap;html=1;" parent="isSvybaSc9SBgO7T6rGv-138" vertex="1">
          <mxGeometry x="117.60000000000001" y="176" width="88.2" height="28.695652173913043" as="geometry" />
        </mxCell>
        <mxCell id="isSvybaSc9SBgO7T6rGv-140" value="应用端" style="text;html=1;strokeColor=none;fillColor=none;align=center;verticalAlign=middle;whiteSpace=wrap;rounded=0;" parent="1" vertex="1">
          <mxGeometry x="100" y="320" width="60" height="30" as="geometry" />
        </mxCell>
      </root>
    </mxGraphModel>
  </diagram>
</mxfile>
